<?xml version="1.0" encoding="utf-8"?>
<!-- Generator: Adobe Illustrator 17.1.0, SVG Export Plug-In . SVG Version: 6.00 Build 0)  -->
<!DOCTYPE svg PUBLIC "-//W3C//DTD SVG 1.0//EN" "http://www.w3.org/TR/2001/REC-SVG-20010904/DTD/svg10.dtd">
<svg version="1.0" id="Layer_1" xmlns="http://www.w3.org/2000/svg" xmlns:xlink="http://www.w3.org/1999/xlink" x="0px" y="0px"
	 width="235.3px" height="174.4px" viewBox="0 0 235.3 174.4" enable-background="new 0 0 235.3 174.4" xml:space="preserve">
<g>
	<path fill-rule="evenodd" clip-rule="evenodd" fill="#FFFFFF" d="M52.4,80.4c0-0.5-0.3-1-0.8-1.3l-12.5-7.2
		c-0.2-0.1-0.4-0.2-0.7-0.2c0,0-0.1,0-0.1,0c-0.2,0-0.5,0.1-0.7,0.2l-12.5,7.2c-0.5,0.3-0.8,0.8-0.8,1.3l0,19.3
		c0,0.3,0.1,0.5,0.4,0.7c0.2,0.1,0.5,0.1,0.7,0l7.4-4.2c0.5-0.3,0.8-0.8,0.8-1.3v-9c0-0.5,0.3-1,0.8-1.3l3.2-1.8
		c0.2-0.1,0.5-0.2,0.8-0.2c0.3,0,0.5,0.1,0.7,0.2l3.2,1.8c0.5,0.3,0.8,0.8,0.8,1.3v9c0,0.5,0.3,1,0.8,1.3l7.4,4.2
		c0.2,0.1,0.5,0.1,0.8,0c0.2-0.1,0.4-0.4,0.4-0.7L52.4,80.4z"/>
	<path fill-rule="evenodd" clip-rule="evenodd" fill="#FFFFFF" d="M119,53.9c-0.2-0.1-0.5-0.1-0.7,0c-0.2,0.1-0.4,0.4-0.4,0.6v19.1
		c0,0.2-0.1,0.4-0.3,0.5c-0.2,0.1-0.4,0.1-0.5,0l-3.1-1.8c-0.5-0.3-1-0.3-1.5,0L100,79.5c-0.5,0.3-0.8,0.8-0.8,1.3v14.4
		c0,0.5,0.3,1,0.8,1.3l12.5,7.2c0.5,0.3,1,0.3,1.5,0l12.5-7.2c0.5-0.3,0.8-0.8,0.8-1.3V59.3c0-0.5-0.3-1-0.8-1.3L119,53.9z
		 M117.8,90.5c0,0.1-0.1,0.3-0.2,0.3l-4.3,2.5c-0.1,0.1-0.3,0.1-0.4,0l-4.3-2.5c-0.1-0.1-0.2-0.2-0.2-0.3v-4.9
		c0-0.1,0.1-0.3,0.2-0.3l4.3-2.5c0.1-0.1,0.3-0.1,0.4,0l4.3,2.5c0.1,0.1,0.2,0.2,0.2,0.3V90.5z"/>
	<path fill-rule="evenodd" clip-rule="evenodd" fill="#FFFFFF" d="M163.6,85.4c0.5-0.3,0.7-0.8,0.7-1.3v-3.5c0-0.5-0.3-1-0.8-1.3
		l-12.4-7.2c-0.5-0.3-1-0.3-1.5,0l-12.5,7.2c-0.5,0.3-0.8,0.8-0.8,1.3V95c0,0.5,0.3,1,0.8,1.3l12.4,7.1c0.5,0.3,1,0.3,1.5,0l7.5-4.2
		c0.2-0.1,0.4-0.4,0.4-0.7c0-0.3-0.1-0.5-0.4-0.7l-12.5-7.2c-0.2-0.1-0.4-0.4-0.4-0.7v-4.5c0-0.3,0.1-0.5,0.4-0.7l3.9-2.3
		c0.2-0.1,0.5-0.1,0.8,0l3.9,2.3c0.2,0.1,0.4,0.4,0.4,0.7v3.6c0,0.3,0.1,0.5,0.4,0.7c0.2,0.1,0.5,0.1,0.8,0L163.6,85.4z"/>
	<path fill-rule="evenodd" clip-rule="evenodd" fill="#FFFFFF" d="M75.1,72c0.5-0.3,1-0.3,1.5,0L89,79.2c0.5,0.3,0.8,0.8,0.8,1.3
		v14.4c0,0.5-0.3,1-0.8,1.3l-12.5,7.2c-0.5,0.3-1,0.3-1.5,0l-12.5-7.2c-0.5-0.3-0.8-0.8-0.8-1.3V80.5c0-0.5,0.3-1,0.8-1.3L75.1,72z"
		/>
	<path fill="#FFFFFF" d="M187.8,103.7c-0.4,0-0.9-0.1-1.2-0.3l-3.9-2.3c-0.6-0.3-0.3-0.4-0.1-0.5c0.8-0.3,0.9-0.3,1.8-0.8
		c0.1,0,0.2,0,0.3,0l3,1.8c0.1,0.1,0.3,0.1,0.4,0l11.8-6.8c0.1-0.1,0.2-0.2,0.2-0.3V80.8c0-0.1-0.1-0.3-0.2-0.3L188,73.7
		c-0.1-0.1-0.3-0.1-0.4,0l-11.8,6.8c-0.1,0.1-0.2,0.2-0.2,0.3v13.6c0,0.1,0.1,0.3,0.2,0.3l3.2,1.9c1.7,0.9,2.8-0.2,2.8-1.2V82
		c0-0.2,0.2-0.3,0.3-0.3h1.5c0.2,0,0.3,0.1,0.3,0.3v13.4c0,2.3-1.3,3.7-3.5,3.7c-0.7,0-1.2,0-2.7-0.7l-3.1-1.8
		c-0.8-0.4-1.2-1.3-1.2-2.1V80.8c0-0.9,0.5-1.7,1.2-2.1l11.8-6.8c0.7-0.4,1.7-0.4,2.5,0l11.8,6.8c0.8,0.4,1.2,1.3,1.2,2.1v13.6
		c0,0.9-0.5,1.7-1.2,2.1l-11.8,6.8C188.7,103.5,188.2,103.7,187.8,103.7z"/>
	<path fill="#FFFFFF" d="M191.4,94.3c-5.1,0-6.2-2.4-6.2-4.3c0-0.2,0.2-0.3,0.3-0.3h1.5c0.2,0,0.3,0.1,0.3,0.3
		c0.2,1.5,0.9,2.3,4,2.3c2.5,0,3.5-0.6,3.5-1.9c0-0.8-0.3-1.3-4.1-1.7c-3.2-0.3-5.2-1-5.2-3.6c0-2.4,2-3.8,5.4-3.8
		c3.8,0,5.6,1.3,5.9,4.1c0,0.1,0,0.2-0.1,0.3c-0.1,0.1-0.2,0.1-0.2,0.1H195c-0.2,0-0.3-0.1-0.3-0.3c-0.4-1.6-1.3-2.1-3.7-2.1
		c-2.7,0-3,0.9-3,1.6c0,0.9,0.4,1.1,4,1.6c3.6,0.5,5.3,1.2,5.3,3.7C197.3,92.8,195.2,94.3,191.4,94.3z"/>
	<g>
		<path fill="#FFFFFF" d="M207.7,71.9v0.3h-1v2.6h-0.4v-2.6h-1v-0.3H207.7z"/>
		<path fill="#FFFFFF" d="M208,71.9h0.6l0.8,2.5l0.8-2.5h0.6v2.9h-0.4v-1.7c0-0.1,0-0.2,0-0.3c0-0.1,0-0.3,0-0.4l-0.8,2.5h-0.4
			l-0.8-2.5v0.1c0,0.1,0,0.2,0,0.3c0,0.1,0,0.3,0,0.3v1.7H208V71.9z"/>
	</g>
	<path fill-rule="evenodd" clip-rule="evenodd" fill="#FFFFFF" d="M150.3,84.7c0.1-0.1,0.2-0.1,0.3,0l2.4,1.4
		c0.1,0.1,0.1,0.1,0.1,0.3v2.8c0,0.1-0.1,0.2-0.1,0.3l-2.4,1.4c-0.1,0.1-0.2,0.1-0.3,0l-2.4-1.4c-0.1-0.1-0.1-0.1-0.1-0.3v-2.8
		c0-0.1,0.1-0.2,0.1-0.3L150.3,84.7z"/>
</g>
</svg>
