<?xml version="1.0" encoding="utf-8"?>
<!-- Generator: Adobe Illustrator 17.1.0, SVG Export Plug-In . SVG Version: 6.00 Build 0)  -->
<!DOCTYPE svg PUBLIC "-//W3C//DTD SVG 1.0//EN" "http://www.w3.org/TR/2001/REC-SVG-20010904/DTD/svg10.dtd">
<svg version="1.0" id="Layer_1" xmlns="http://www.w3.org/2000/svg" xmlns:xlink="http://www.w3.org/1999/xlink" x="0px" y="0px"
	 width="1224px" height="792px" viewBox="0 0 1224 792" enable-background="new 0 0 1224 792" xml:space="preserve">
<path fill="#FFFFFF" d="M1016.7,144.8c-29.9,13.3-61.9,22.2-95.4,26.1c34.4-20.4,60.7-53,73.1-91.8c-32,19-67.5,32.9-105.4,40.3
	C858.9,87,815.6,66.9,768,66.9c-91.8,0-166.1,74.3-166.1,166.1c0,13,1.5,25.8,4.4,37.9c-138-6.8-260.3-73.1-342.3-173.5
	c-14.2,24.6-22.5,53-22.5,83.5c0,57.7,29.3,108.4,74,138.3c-27.2-0.9-52.7-8.3-75.2-20.7c0,0.6,0,1.5,0,2.1
	c0,80.5,57.2,147.5,133.3,162.9c-13.9,3.8-28.7,5.9-43.8,5.9c-10.7,0-21-1.2-31.4-3c21,66,82.6,114,155.2,115.5
	c-56.9,44.4-128.5,71.1-206.4,71.1c-13.3,0-26.7-0.9-39.7-2.4c73.4,47.1,160.8,74.6,254.7,74.6c305.6,0,472.6-253.2,472.6-472.6
	c0-7.1-0.3-14.5-0.6-21.6C966.4,207.3,994.5,178.2,1016.7,144.8z"/>
</svg>
