<?xml version="1.0" encoding="utf-8"?>
<!-- Generator: Adobe Illustrator 18.0.0, SVG Export Plug-In . SVG Version: 6.00 Build 0)  -->
<!DOCTYPE svg PUBLIC "-//W3C//DTD SVG 1.1//EN" "http://www.w3.org/Graphics/SVG/1.1/DTD/svg11.dtd">
<svg version="1.1" id="Layer_1" xmlns="http://www.w3.org/2000/svg" xmlns:xlink="http://www.w3.org/1999/xlink" x="0px" y="0px"
	 viewBox="0 0 612 792" enable-background="new 0 0 612 792" xml:space="preserve">
<g>
	<g>
		<path fill="#FFFFFF" d="M213.9,316.6H235v1.9h-21.1V316.6z"/>
	</g>
	<g>
		<path fill="#FFFFFF" d="M68.1,375.7l24.8-26.6H69.6v-13.6h44.6v11.8l-24.8,27.6h26v13.6H68.1L68.1,375.7L68.1,375.7z"/>
	</g>
	<g>
		<path fill="#FFFFFF" d="M282.7,353.1h4.3v13.6l0,0c0.3-0.6,0.9-1.5,1.5-1.9c0.6-0.6,1.2-0.9,1.9-1.2c0.6-0.3,1.5-0.6,2.2-0.6
			c0.9-0.3,1.5-0.3,2.5-0.3c1.5,0,3.1,0.3,4.3,0.6c1.2,0.3,2.2,1.2,2.8,1.9c0.6,0.9,1.2,1.9,1.5,3.1s0.3,2.5,0.3,3.7v16.7h-4.3
			v-17.3c0-1.5-0.3-2.8-1.2-3.7c-0.9-0.9-2.2-1.2-3.7-1.2c-1.2,0-2.5,0.3-3.4,0.6c-0.9,0.3-1.9,0.9-2.5,1.5
			c-0.6,0.6-1.2,1.5-1.5,2.5s-0.6,2.2-0.6,3.1v14.6h-4.3v-35.6H282.7z"/>
		<path fill="#FFFFFF" d="M334.1,388.4h-4.3V385l0,0c-0.6,1.5-1.9,2.5-3.4,3.1s-3.1,0.9-5,0.9s-3.7-0.3-5.3-1.2
			c-1.5-0.6-2.8-1.9-3.7-3.1c-0.9-1.2-1.9-2.8-2.2-4.3c-0.6-1.5-0.6-3.4-0.6-5.3s0.3-3.4,0.6-5.3c0.6-1.5,1.2-3.1,2.2-4.3
			c0.9-1.2,2.2-2.2,3.7-2.8c1.5-0.6,3.1-0.9,5.3-0.9c0.6,0,1.2,0,2.2,0.3c0.6,0,1.5,0.3,2.2,0.6s1.5,0.6,2.2,1.2
			c0.6,0.6,1.2,1.2,1.9,1.9l0,0v-13.3h4.3L334.1,388.4L334.1,388.4z M314.2,375.7c0,1.2,0.3,2.5,0.6,3.4c0.3,1.2,0.9,2.2,1.5,3.1
			s1.5,1.5,2.5,2.2s2.2,0.9,3.4,0.9c1.5,0,2.5-0.3,3.7-0.9c0.9-0.6,1.9-1.2,2.5-2.2c0.6-0.9,0.9-1.9,1.2-3.1s0.3-2.5,0.3-3.4
			c0-1.2,0-2.5-0.3-3.7c-0.3-1.2-0.6-2.2-1.5-3.1c-0.6-0.9-1.5-1.5-2.5-2.2s-2.2-0.9-3.7-0.9s-2.8,0.3-3.7,0.9
			c-0.9,0.6-1.9,1.2-2.5,2.2c-0.6,0.9-0.9,1.9-1.2,3.1C314.6,373.2,314.2,374.5,314.2,375.7z"/>
		<path fill="#FFFFFF" d="M341.8,353.1h4.3v21.1l11.8-11.1h5.6l-10.2,9.3l10.8,16.4h-5.3l-8.7-13.3l-4,3.7v9.6h-4.3L341.8,353.1
			L341.8,353.1z"/>
	</g>
	<g>
		<path fill="#FFFFFF" d="M213.9,412.5H235v1.9h-21.1V412.5z"/>
	</g>
	<g>
		<path fill="#FFFFFF" d="M213.3,445.7l9.6-12.1h-9v-1.9h11.5v1.9l-9.6,12.1h9.9v1.9h-12.4L213.3,445.7L213.3,445.7z"/>
		<path fill="#FFFFFF" d="M237.1,447.2h-1.9v-1.9l0,0c-0.3,0.6-0.9,1.2-1.5,1.5s-1.2,0.6-2.2,0.6c-0.6,0-1.2,0-1.9-0.3
			s-0.9-0.6-1.2-0.9c-0.3-0.3-0.6-0.9-0.6-1.2c0-0.6-0.3-0.9-0.3-1.5v-7.4h1.9v7.7c0,0.6,0.3,1.2,0.6,1.5s0.9,0.6,1.5,0.6
			s0.9,0,1.5-0.3c0.3-0.3,0.6-0.3,0.9-0.6c0.3-0.3,0.6-0.6,0.6-1.2c0-0.3,0.3-0.9,0.3-1.5v-6.2h1.9v11.1H237.1z M229.4,432.1h1.9
			v2.2h-1.9V432.1z M233.4,432.1h1.9v2.2h-1.9V432.1z"/>
		<path fill="#FFFFFF" d="M240.2,436.1h1.9v2.5l0,0c0.3-0.9,0.9-1.5,1.5-2.2c0.6-0.3,1.5-0.6,2.5-0.6v1.9c-0.6,0-1.2,0-1.9,0.3
			s-0.9,0.6-1.2,0.9c-0.3,0.3-0.6,0.9-0.6,1.5s-0.3,1.2-0.3,1.9v5h-1.9L240.2,436.1L240.2,436.1z"/>
	</g>
	<g>
		<path fill="#FFFFFF" d="M255.1,439.8c0-0.6-0.3-1.2-0.9-1.5c-0.6-0.3-1.2-0.6-1.9-0.6s-1.2,0-1.5,0.3s-0.9,0.6-0.9,0.9
			c-0.3,0.3-0.3,0.9-0.6,1.5c0,0.6-0.3,0.9-0.3,1.5s0,0.9,0.3,1.5c0,0.6,0.3,0.9,0.6,1.2s0.6,0.6,0.9,0.9c0.3,0.3,0.9,0.3,1.5,0.3
			c0.9,0,1.5-0.3,2.2-0.6c0.6-0.6,0.9-1.2,0.9-1.9h1.9c-0.3,1.2-0.6,2.5-1.5,3.1s-1.9,1.2-3.4,1.2c-0.9,0-1.5,0-2.2-0.3
			s-1.2-0.6-1.5-1.2c-0.3-0.6-0.6-1.2-0.9-1.9c-0.3-0.6-0.3-1.5-0.3-2.2c0-0.9,0-1.5,0.3-2.5c0.3-0.6,0.6-1.2,0.9-1.9
			c0.3-0.6,0.9-0.9,1.5-1.2s1.5-0.6,2.5-0.6c0.6,0,1.2,0,1.9,0.3c0.6,0,0.9,0.3,1.5,0.6c0.3,0.3,0.9,0.6,0.9,1.2
			c0.3,0.6,0.3,0.9,0.6,1.9h-2.5V439.8z"/>
		<path fill="#FFFFFF" d="M259.8,431.7h1.9v5.9l0,0c0-0.3,0.3-0.6,0.6-0.9c0.3-0.3,0.6-0.3,0.9-0.6c0.3,0,0.6-0.3,0.9-0.3
			c0.3,0,0.6,0,0.9,0c0.6,0,1.2,0,1.9,0.3s0.9,0.6,1.2,0.9c0.3,0.3,0.6,0.9,0.6,1.2c0,0.6,0.3,0.9,0.3,1.5v7.4h-1.9v-7.7
			c0-0.6-0.3-1.2-0.6-1.5s-0.9-0.6-1.5-0.6s-0.9,0-1.5,0.3c-0.3,0.3-0.6,0.3-0.9,0.6c-0.3,0.3-0.6,0.6-0.6,1.2
			c0,0.3-0.3,0.9-0.3,1.5v6.2h-1.9V431.7z"/>
		<path fill="#FFFFFF" d="M281.7,443.8c-0.3,1.2-0.9,2.2-1.5,2.8c-0.9,0.6-1.9,0.9-3.1,0.9c-0.9,0-1.5,0-2.5-0.3
			c-0.6-0.3-1.2-0.6-1.5-1.2c-0.3-0.6-0.9-1.2-0.9-1.9c-0.3-0.6-0.3-1.5-0.3-2.5s0-1.5,0.3-2.5c0.3-0.6,0.6-1.2,1.2-1.9
			c0.6-0.6,0.9-0.9,1.5-1.2s1.2-0.3,2.2-0.3c0.9,0,1.9,0.3,2.5,0.6c0.6,0.3,1.2,0.9,1.5,1.5s0.6,1.2,0.9,2.2c0,0.6,0.3,1.5,0.3,2.2
			H274c0,0.6,0,0.9,0.3,1.5c0,0.3,0.3,0.9,0.6,1.2s0.6,0.6,1.2,0.9c0.3,0.3,0.9,0.3,1.5,0.3s1.5-0.3,1.9-0.6
			c0.6-0.3,0.9-0.9,0.9-1.5h1.2V443.8z M279.9,440.7c0-0.3,0-0.9-0.3-1.2s-0.3-0.6-0.6-0.9c-0.3-0.3-0.6-0.6-0.9-0.6
			c-0.3-0.3-0.9-0.3-1.2-0.3c-0.6,0-0.9,0-1.2,0.3s-0.6,0.3-0.9,0.6c-0.3,0.3-0.6,0.6-0.6,0.9c-0.3,0.3-0.3,0.9-0.3,1.2H279.9z"/>
		<path fill="#FFFFFF" d="M284.2,436.1h1.9v2.5l0,0c0.3-0.9,0.9-1.5,1.5-2.2c0.6-0.3,1.5-0.6,2.5-0.6v1.9c-0.6,0-1.2,0-1.9,0.3
			s-0.9,0.6-1.2,0.9c-0.3,0.3-0.6,0.9-0.6,1.5s-0.3,1.2-0.3,1.9v5h-1.9L284.2,436.1L284.2,436.1z"/>
		<path fill="#FFFFFF" d="M298.8,431.7h2.2v6.5h8v-6.5h2.2v15.5H309v-7.1h-8v7.1h-2.2V431.7z"/>
		<path fill="#FFFFFF" d="M313.9,441.7c0-0.9,0-1.5,0.3-2.2s0.6-1.2,0.9-1.9c0.3-0.6,0.9-0.9,1.5-1.2s1.5-0.3,2.5-0.3s1.5,0,2.5,0.3
			c0.6,0.3,1.2,0.6,1.9,1.2c0.3,0.6,0.9,1.2,0.9,1.9c0.3,0.6,0.3,1.5,0.3,2.2s0,1.5-0.3,2.2s-0.6,1.2-0.9,1.9
			c-0.3,0.6-0.9,0.9-1.9,1.2c-0.6,0.3-1.5,0.3-2.5,0.3s-1.5,0-2.5-0.3c-0.6-0.3-1.2-0.6-1.5-1.2c-0.3-0.6-0.9-1.2-0.9-1.9
			C313.9,443.2,313.9,442.6,313.9,441.7z M315.8,441.7c0,0.6,0,1.2,0.3,1.9s0.3,0.9,0.6,1.2s0.6,0.6,1.2,0.9
			c0.3,0.3,0.9,0.3,1.2,0.3s0.9,0,1.2-0.3s0.9-0.3,1.2-0.9c0.3-0.3,0.6-0.9,0.6-1.2c0.3-0.6,0.3-1.2,0.3-1.9s0-1.2-0.3-1.9
			s-0.3-0.9-0.6-1.2s-0.6-0.6-1.2-0.9c-0.3-0.3-0.9-0.3-1.2-0.3s-0.9,0-1.2,0.3s-0.9,0.3-1.2,0.9c-0.3,0.3-0.6,0.9-0.6,1.2
			C315.8,440.4,315.8,441,315.8,441.7z"/>
		<path fill="#FFFFFF" d="M335,439.8c0-0.6-0.3-1.2-0.9-1.5c-0.6-0.3-1.2-0.6-1.9-0.6s-1.2,0-1.5,0.3s-0.9,0.6-0.9,0.9
			c-0.3,0.3-0.3,0.9-0.6,1.5c0,0.6-0.3,0.9-0.3,1.5s0,0.9,0.3,1.5c0,0.6,0.3,0.9,0.6,1.2s0.6,0.6,0.9,0.9c0.3,0.3,0.9,0.3,1.5,0.3
			c0.9,0,1.5-0.3,2.2-0.6c0.6-0.6,0.9-1.2,0.9-1.9h1.9c-0.3,1.2-0.6,2.5-1.5,3.1c-0.9,0.6-1.9,1.2-3.4,1.2c-0.9,0-1.5,0-2.2-0.3
			s-1.2-0.6-1.5-1.2c-0.3-0.6-0.6-1.2-0.9-1.9c-0.3-0.6-0.3-1.5-0.3-2.2c0-0.9,0-1.5,0.3-2.5c0.3-0.6,0.6-1.2,0.9-1.9
			c0.3-0.6,0.9-0.9,1.5-1.2s1.5-0.6,2.5-0.6c0.6,0,1.2,0,1.9,0.3c0.6,0,0.9,0.3,1.5,0.6c0.3,0.3,0.9,0.6,0.9,1.2
			c0.3,0.6,0.3,0.9,0.6,1.9H335V439.8z"/>
		<path fill="#FFFFFF" d="M339.3,431.7h1.9v5.9l0,0c0-0.3,0.3-0.6,0.6-0.9c0.3-0.3,0.6-0.3,0.9-0.6c0.3,0,0.6-0.3,0.9-0.3
			c0.3,0,0.6,0,0.9,0c0.6,0,1.2,0,1.9,0.3s0.9,0.6,1.2,0.9c0.3,0.3,0.6,0.9,0.6,1.2c0,0.6,0.3,0.9,0.3,1.5v7.4h-1.9v-7.7
			c0-0.6-0.3-1.2-0.6-1.5s-0.9-0.6-1.5-0.6s-0.9,0-1.5,0.3c-0.3,0.3-0.6,0.3-0.9,0.6c-0.3,0.3-0.6,0.6-0.6,1.2
			c0,0.3-0.3,0.9-0.3,1.5v6.2h-1.9L339.3,431.7L339.3,431.7z"/>
		<path fill="#FFFFFF" d="M352.9,443.8c0,0.3,0,0.6,0.3,0.9c0.3,0.3,0.3,0.6,0.6,0.6c0.3,0.3,0.6,0.3,0.9,0.3c0.3,0,0.6,0,1.2,0
			c0.3,0,0.6,0,0.9,0c0.3,0,0.6,0,0.9-0.3c0.3,0,0.6-0.3,0.6-0.6c0.3-0.3,0.3-0.6,0.3-0.9c0-0.3,0-0.6-0.3-0.9
			c-0.3-0.3-0.6-0.3-0.9-0.6c-0.3,0-0.6-0.3-1.2-0.3c-0.3,0-0.9-0.3-1.2-0.3s-0.9-0.3-1.2-0.3s-0.9-0.3-1.2-0.6s-0.6-0.6-0.9-0.9
			c-0.3-0.3-0.3-0.9-0.3-1.2c0-0.6,0-0.9,0.3-1.5c0.3-0.3,0.6-0.6,0.9-0.9c0.3-0.3,0.9-0.3,1.2-0.6c0.6,0,0.9-0.3,1.5-0.3
			s1.2,0,1.9,0.3c0.6,0,0.9,0.3,1.5,0.6c0.3,0.3,0.6,0.6,0.9,0.9c0.3,0.3,0.3,0.9,0.3,1.5h-1.9c0-0.3,0-0.6-0.3-0.9
			c-0.3-0.3-0.3-0.3-0.6-0.6c-0.3,0-0.6-0.3-0.9-0.3c-0.3,0-0.6,0-0.9,0c-0.3,0-0.6,0-0.9,0c-0.3,0-0.6,0-0.6,0.3
			c-0.3,0-0.3,0.3-0.6,0.3c0,0.3-0.3,0.3-0.3,0.6s0,0.6,0.3,0.9c0.3,0.3,0.6,0.3,0.9,0.6c0.3,0,0.6,0.3,1.2,0.3
			c0.3,0,0.9,0.3,1.2,0.3s0.9,0.3,1.2,0.3s0.9,0.3,1.2,0.6s0.6,0.6,0.9,0.9c0.3,0.3,0.3,0.9,0.3,1.2c0,0.6,0,1.2-0.3,1.5
			s-0.6,0.9-1.2,1.2c-0.3,0.3-0.9,0.6-1.5,0.6s-1.2,0.3-1.5,0.3c-0.6,0-1.2,0-1.9-0.3c-0.6,0-0.9-0.3-1.5-0.6
			c-0.3-0.3-0.9-0.6-0.9-1.2c-0.3-0.6-0.3-0.9-0.3-1.9h1.9V443.8z"/>
		<path fill="#FFFFFF" d="M370.6,439.8c0-0.6-0.3-1.2-0.9-1.5c-0.6-0.3-1.2-0.6-1.9-0.6s-1.2,0-1.5,0.3s-0.9,0.6-0.9,0.9
			c-0.3,0.3-0.3,0.9-0.6,1.5c0,0.6-0.3,0.9-0.3,1.5s0,0.9,0.3,1.5c0,0.6,0.3,0.9,0.6,1.2s0.6,0.6,0.9,0.9c0.3,0.3,0.9,0.3,1.5,0.3
			c0.9,0,1.5-0.3,2.2-0.6c0.6-0.6,0.9-1.2,0.9-1.9h1.9c-0.3,1.2-0.6,2.5-1.5,3.1c-0.9,0.6-1.9,1.2-3.4,1.2c-0.9,0-1.5,0-2.2-0.3
			s-1.2-0.6-1.5-1.2c-0.3-0.6-0.6-1.2-0.9-1.9c-0.3-0.6-0.3-1.5-0.3-2.2c0-0.9,0-1.5,0.3-2.5c0.3-0.6,0.6-1.2,0.9-1.9
			c0.3-0.6,0.9-0.9,1.5-1.2s1.5-0.6,2.5-0.6c0.6,0,1.2,0,1.9,0.3c0.6,0,0.9,0.3,1.5,0.6c0.3,0.3,0.9,0.6,0.9,1.2
			c0.3,0.6,0.3,0.9,0.6,1.9h-2.5V439.8z"/>
		<path fill="#FFFFFF" d="M375.2,431.7h1.9v5.9l0,0c0-0.3,0.3-0.6,0.6-0.9c0.3-0.3,0.6-0.3,0.9-0.6c0.3,0,0.6-0.3,0.9-0.3
			c0.3,0,0.6,0,0.9,0c0.6,0,1.2,0,1.9,0.3s0.9,0.6,1.2,0.9c0.3,0.3,0.6,0.9,0.6,1.2c0,0.6,0.3,0.9,0.3,1.5v7.4h-1.9v-7.7
			c0-0.6-0.3-1.2-0.6-1.5s-0.9-0.6-1.5-0.6s-0.9,0-1.5,0.3c-0.3,0.3-0.6,0.3-0.9,0.6c-0.3,0.3-0.6,0.6-0.6,1.2
			c0,0.3-0.3,0.9-0.3,1.5v6.2h-1.9L375.2,431.7L375.2,431.7z"/>
		<path fill="#FFFFFF" d="M396.9,447.2h-1.9v-1.9l0,0c-0.3,0.6-0.9,1.2-1.5,1.5s-1.2,0.6-2.2,0.6c-0.6,0-1.2,0-1.9-0.3
			s-0.9-0.6-1.2-0.9c-0.3-0.3-0.6-0.9-0.6-1.2c0-0.6-0.3-0.9-0.3-1.5v-7.4h1.9v7.7c0,0.6,0.3,1.2,0.6,1.5s0.9,0.6,1.5,0.6
			s0.9,0,1.5-0.3c0.3-0.3,0.6-0.3,0.9-0.6c0.3-0.3,0.6-0.6,0.6-1.2c0-0.3,0.3-0.9,0.3-1.5v-6.2h1.9v11.1H396.9z"/>
		<path fill="#FFFFFF" d="M400.3,431.7h1.9v15.5h-1.9V431.7z"/>
		<path fill="#FFFFFF" d="M414.9,443.8c-0.3,1.2-0.9,2.2-1.5,2.8c-0.9,0.6-1.9,0.9-3.1,0.9c-0.9,0-1.5,0-2.5-0.3
			c-0.9-0.3-1.2-0.6-1.5-1.2c-0.3-0.6-0.9-1.2-0.9-1.9c-0.3-0.6-0.3-1.5-0.3-2.5s0-1.5,0.3-2.5c0.3-0.6,0.6-1.2,1.2-1.9
			c0.6-0.6,0.9-0.9,1.5-1.2c0.6-0.3,1.2-0.3,2.2-0.3c0.9,0,1.9,0.3,2.5,0.6c0.6,0.3,1.2,0.9,1.5,1.5s0.6,1.2,0.9,2.2
			c0,0.6,0.3,1.5,0.3,2.2h-8.4c0,0.6,0,0.9,0.3,1.5c0,0.3,0.3,0.9,0.6,1.2c0.3,0.3,0.6,0.6,1.2,0.9c0.3,0.3,0.9,0.3,1.5,0.3
			s1.5-0.3,1.9-0.6c0.6-0.3,0.9-0.9,0.9-1.5h1.2V443.8z M413.3,440.7c0-0.3,0-0.9-0.3-1.2s-0.3-0.6-0.6-0.9
			c-0.3-0.3-0.6-0.6-0.9-0.6c-0.3-0.3-0.9-0.3-1.2-0.3c-0.6,0-0.9,0-1.2,0.3s-0.6,0.3-0.9,0.6c-0.3,0.3-0.6,0.6-0.6,0.9
			c-0.3,0.3-0.3,0.9-0.3,1.2H413.3z"/>
		<path fill="#FFFFFF" d="M434.1,447.2h-1.9v-1.5l0,0c-0.3,0.6-0.9,0.9-1.5,1.2s-1.2,0.3-2.2,0.3c-0.9,0-1.5-0.3-2.2-0.6
			s-1.2-0.6-1.5-1.2c-0.3-0.6-0.6-1.2-0.9-1.9c-0.3-0.6-0.3-1.5-0.3-2.2c0-0.9,0-1.5,0.3-2.2s0.6-1.2,0.9-1.9
			c0.3-0.6,0.9-0.9,1.5-1.2s1.2-0.6,2.2-0.6c0.3,0,0.6,0,0.9,0c0.3,0,0.6,0,0.9,0.3c0.3,0,0.6,0.3,0.9,0.6c0.3,0.3,0.6,0.6,0.6,0.9
			l0,0v-5.6h1.9v15.5H434.1z M425.4,441.7c0,0.6,0,0.9,0.3,1.5c0,0.6,0.3,0.9,0.6,1.2s0.6,0.6,1.2,0.9c0.3,0.3,0.9,0.3,1.5,0.3
			s1.2,0,1.5-0.3s0.9-0.6,0.9-0.9c0.3-0.3,0.6-0.9,0.6-1.2c0-0.6,0.3-0.9,0.3-1.5s0-0.9-0.3-1.5c0-0.6-0.3-0.9-0.6-1.2
			s-0.6-0.6-1.2-0.9c-0.3-0.3-0.9-0.3-1.5-0.3s-1.2,0-1.5,0.3c-0.3,0.3-0.6,0.6-0.9,0.9c-0.3,0.3-0.3,0.9-0.6,1.2
			C425.4,440.7,425.4,441.3,425.4,441.7z"/>
		<path fill="#FFFFFF" d="M446.8,443.8c-0.3,1.2-0.9,2.2-1.5,2.8c-0.9,0.6-1.9,0.9-3.1,0.9c-0.9,0-1.5,0-2.5-0.3
			c-0.9-0.3-1.2-0.6-1.5-1.2c-0.3-0.6-0.9-1.2-0.9-1.9c-0.3-0.6-0.3-1.5-0.3-2.5s0-1.5,0.3-2.5c0.3-0.6,0.6-1.2,1.2-1.9
			c0.6-0.6,0.9-0.9,1.5-1.2s1.2-0.3,2.2-0.3c0.9,0,1.9,0.3,2.5,0.6c0.6,0.3,1.2,0.9,1.5,1.5s0.6,1.2,0.9,2.2c0,0.6,0.3,1.5,0.3,2.2
			H439c0,0.6,0,0.9,0.3,1.5c0,0.3,0.3,0.9,0.6,1.2s0.6,0.6,1.2,0.9c0.3,0.3,0.9,0.3,1.5,0.3s1.5-0.3,1.9-0.6
			c0.6-0.3,0.9-0.9,0.9-1.5h1.2V443.8z M444.9,440.7c0-0.3,0-0.9-0.3-1.2s-0.3-0.6-0.6-0.9c-0.3-0.3-0.6-0.6-0.9-0.6
			c-0.3-0.3-0.9-0.3-1.2-0.3c-0.6,0-0.9,0-1.2,0.3s-0.6,0.3-0.9,0.6c-0.3,0.3-0.6,0.6-0.6,0.9c-0.3,0.3-0.3,0.9-0.3,1.2H444.9z"/>
		<path fill="#FFFFFF" d="M449.2,436.1h1.9v2.5l0,0c0.3-0.9,0.9-1.5,1.5-2.2c0.6-0.3,1.5-0.6,2.5-0.6v1.9c-0.6,0-1.2,0-1.9,0.3
			s-0.9,0.6-1.2,0.9c-0.3,0.3-0.6,0.9-0.6,1.5s-0.3,1.2-0.3,1.9v5h-1.9L449.2,436.1L449.2,436.1z"/>
		<path fill="#FFFFFF" d="M463.8,431.7h2.2v7.7l7.7-7.7h2.8l-6.5,6.2l6.8,9.3h-2.5l-5.6-7.7l-2.5,2.5v5.6h-2.2v-15.8H463.8z"/>
		<path fill="#FFFFFF" d="M487.6,447.2h-1.9v-1.9l0,0c-0.3,0.6-0.9,1.2-1.5,1.5s-1.2,0.6-2.2,0.6c-0.6,0-1.2,0-1.9-0.3
			s-0.9-0.6-1.2-0.9c-0.3-0.3-0.6-0.9-0.6-1.2c0-0.6-0.3-0.9-0.3-1.5v-7.4h1.9v7.7c0,0.6,0.3,1.2,0.6,1.5s0.9,0.6,1.5,0.6
			s0.9,0,1.5-0.3c0.3-0.3,0.6-0.3,0.9-0.6c0.3-0.3,0.6-0.6,0.6-1.2c0-0.3,0.3-0.9,0.3-1.5v-6.2h1.9v11.1H487.6z M479.9,432.1h1.9
			v2.2h-1.9V432.1z M483.9,432.1h1.9v2.2h-1.9V432.1z"/>
		<path fill="#FFFFFF" d="M490.7,436.1h1.9v1.9l0,0c0.3-0.6,0.9-1.2,1.5-1.5s1.2-0.6,2.2-0.6c0.6,0,1.2,0,1.9,0.3s0.9,0.6,1.2,0.9
			c0.3,0.3,0.6,0.9,0.6,1.2c0,0.6,0.3,0.9,0.3,1.5v7.4h-2.2v-7.7c0-0.6-0.3-1.2-0.6-1.5s-0.9-0.6-1.5-0.6s-0.9,0-1.5,0.3
			c-0.3,0.3-0.6,0.3-0.9,0.6c-0.3,0.3-0.6,0.6-0.6,1.2c0,0.3-0.3,0.9-0.3,1.5v6.2h-1.9L490.7,436.1L490.7,436.1z"/>
		<path fill="#FFFFFF" d="M504.3,443.8c0,0.3,0,0.6,0.3,0.9c0.3,0.3,0.3,0.6,0.6,0.6c0.3,0.3,0.6,0.3,0.9,0.3c0.3,0,0.6,0,1.2,0
			c0.3,0,0.6,0,0.9,0c0.3,0,0.6,0,0.9-0.3c0.3,0,0.6-0.3,0.6-0.6c0.3-0.3,0.3-0.6,0.3-0.9c0-0.3,0-0.6-0.3-0.9
			c-0.3-0.3-0.6-0.3-0.9-0.6c-0.3,0-0.6-0.3-1.2-0.3c-0.3,0-0.9-0.3-1.2-0.3s-0.9-0.3-1.2-0.3s-0.9-0.3-1.2-0.6s-0.6-0.6-0.9-0.9
			c-0.3-0.3-0.3-0.9-0.3-1.2c0-0.6,0-0.9,0.3-1.5c0.3-0.3,0.6-0.6,0.9-0.9c0.3-0.3,0.9-0.3,1.2-0.6c0.6,0,0.9-0.3,1.5-0.3
			s1.2,0,1.9,0.3c0.6,0,0.9,0.3,1.5,0.6c0.3,0.3,0.6,0.6,0.9,0.9c0.3,0.3,0.3,0.9,0.3,1.5h-1.9c0-0.3,0-0.6-0.3-0.9
			c-0.3-0.3-0.3-0.3-0.6-0.6c-0.3,0-0.6-0.3-0.9-0.3c-0.3,0-0.6,0-0.9,0c-0.3,0-0.6,0-0.9,0c-0.3,0-0.6,0-0.6,0.3
			c-0.3,0-0.3,0.3-0.6,0.3c0,0.3-0.3,0.3-0.3,0.6s0,0.6,0.3,0.9c0.3,0.3,0.6,0.3,0.9,0.6c0.3,0,0.6,0.3,1.2,0.3
			c0.3,0,0.9,0.3,1.2,0.3s0.9,0.3,1.2,0.3s0.9,0.3,1.2,0.6s0.6,0.6,0.9,0.9c0.3,0.3,0.3,0.9,0.3,1.2c0,0.6,0,1.2-0.3,1.5
			s-0.6,0.9-1.2,1.2c-0.3,0.3-0.9,0.6-1.5,0.6s-1.2,0.3-1.5,0.3c-0.6,0-1.2,0-1.9-0.3c-0.6,0-0.9-0.3-1.5-0.6
			c-0.3-0.3-0.9-0.6-0.9-1.2c-0.3-0.6-0.3-0.9-0.3-1.9h1.9V443.8z"/>
		<path fill="#FFFFFF" d="M517,436.1h2.2v1.5H517v6.8c0,0.3,0,0.3,0,0.6c0,0,0,0.3,0.3,0.3h0.3c0.3,0,0.3,0,0.6,0h0.9v1.5h-1.5
			c-0.6,0-0.9,0-1.2,0s-0.6-0.3-0.9-0.3c-0.3-0.3-0.3-0.3-0.6-0.6c0-0.3,0-0.6,0-1.2v-7.1H513v-1.5h1.9v-3.4h1.9v3.4H517z"/>
		<path fill="#FFFFFF" d="M531.3,443.8c-0.3,1.2-0.9,2.2-1.5,2.8c-0.9,0.6-1.9,0.9-3.1,0.9c-0.9,0-1.5,0-2.5-0.3
			c-0.6-0.3-1.2-0.6-1.5-1.2c-0.3-0.6-0.9-1.2-0.9-1.9c-0.3-0.6-0.3-1.5-0.3-2.5s0-1.5,0.3-2.5c0.3-0.6,0.6-1.2,1.2-1.9
			c0.6-0.6,0.9-0.9,1.5-1.2s1.2-0.3,2.2-0.3c0.9,0,1.9,0.3,2.5,0.6c0.6,0.3,1.2,0.9,1.5,1.5s0.6,1.2,0.9,2.2c0,0.6,0.3,1.5,0.3,2.2
			h-8.4c0,0.6,0,0.9,0.3,1.5c0,0.3,0.3,0.9,0.6,1.2s0.6,0.6,1.2,0.9c0.3,0.3,0.9,0.3,1.5,0.3s1.5-0.3,1.9-0.6
			c0.6-0.3,0.9-0.9,0.9-1.5h1.2V443.8z M529.4,440.7c0-0.3,0-0.9-0.3-1.2c-0.3-0.3-0.3-0.6-0.6-0.9c-0.3-0.3-0.6-0.6-0.9-0.6
			c-0.3-0.3-0.9-0.3-1.2-0.3c-0.6,0-0.9,0-1.2,0.3s-0.6,0.3-0.9,0.6c-0.3,0.3-0.6,0.6-0.6,0.9c-0.3,0.3-0.3,0.9-0.3,1.2H529.4z"/>
	</g>
	<g>
		<path fill="#FFFFFF" d="M213.3,473.2l9.6-12.1h-9v-1.5h11.5v1.9l-9.6,12.1h9.9v1.9h-12.4L213.3,473.2L213.3,473.2z"/>
		<path fill="#FFFFFF" d="M237.1,475.1h-1.9v-1.9l0,0c-0.3,0.6-0.9,1.2-1.5,1.5s-1.2,0.6-2.2,0.6c-0.6,0-1.2,0-1.9-0.3
			s-0.9-0.6-1.2-0.9c-0.3-0.3-0.6-0.9-0.6-1.2c0-0.6-0.3-0.9-0.3-1.5v-7.4h1.9v7.7c0,0.6,0.3,1.2,0.6,1.5s0.9,0.6,1.5,0.6
			s0.9,0,1.5-0.3c0.3-0.3,0.6-0.3,0.9-0.6c0.3-0.3,0.6-0.6,0.6-1.2c0-0.3,0.3-0.9,0.3-1.5v-6.2h1.9v11.1H237.1z"/>
		<path fill="#FFFFFF" d="M240.2,463.9h1.9v2.5l0,0c0.3-0.9,0.9-1.5,1.5-2.2c0.6-0.3,1.5-0.6,2.5-0.6v1.9c-0.6,0-1.2,0-1.9,0.3
			s-0.9,0.6-1.2,0.9c-0.3,0.3-0.6,0.9-0.6,1.5s-0.3,1.2-0.3,1.9v5h-1.9L240.2,463.9L240.2,463.9z"/>
		<path fill="#FFFFFF" d="M249.8,461.8H248v-2.2h1.9V461.8z M248,463.9h1.9v11.1H248V463.9z"/>
		<path fill="#FFFFFF" d="M260.7,467.3c0-0.6-0.3-1.2-0.9-1.5c-0.6-0.3-1.2-0.6-1.9-0.6s-1.2,0-1.5,0.3s-0.9,0.6-0.9,0.9
			c-0.3,0.3-0.3,0.9-0.6,1.5c0,0.6-0.3,0.9-0.3,1.5s0,0.9,0.3,1.5c0,0.6,0.3,0.9,0.6,1.2c0.3,0.3,0.6,0.6,0.9,0.9
			c0.3,0.3,0.9,0.3,1.5,0.3c0.9,0,1.5-0.3,2.2-0.6c0.6-0.6,0.9-1.2,0.9-1.9h1.9c-0.3,1.2-0.6,2.5-1.5,3.1s-1.9,1.2-3.4,1.2
			c-0.9,0-1.5,0-2.2-0.3c-0.6-0.3-1.2-0.6-1.5-1.2c-0.3-0.6-0.6-1.2-0.9-1.9c-0.3-0.6-0.3-1.5-0.3-2.2c0-0.9,0-1.5,0.3-2.5
			c0.3-0.6,0.6-1.2,0.9-1.9c0.3-0.6,0.9-0.9,1.5-1.2c0.6-0.3,1.5-0.6,2.5-0.6c0.6,0,1.2,0,1.9,0.3c0.6,0,0.9,0.3,1.5,0.6
			c0.3,0.3,0.9,0.6,0.9,1.2c0.3,0.6,0.3,0.9,0.6,1.9h-2.5V467.3z"/>
		<path fill="#FFFFFF" d="M265.3,459.6h1.9v5.9l0,0c0-0.3,0.3-0.6,0.6-0.9c0.3-0.3,0.6-0.3,0.9-0.6c0.3,0,0.6-0.3,0.9-0.3
			c0.3,0,0.6,0,0.9,0c0.6,0,1.2,0,1.9,0.3s0.9,0.6,1.2,0.9c0.3,0.3,0.6,0.9,0.6,1.2c0,0.6,0.3,0.9,0.3,1.5v7.4h-1.9v-7.7
			c0-0.6-0.3-1.2-0.6-1.5s-0.9-0.6-1.5-0.6s-0.9,0-1.5,0.3c-0.3,0.3-0.6,0.3-0.9,0.6c-0.3,0.3-0.6,0.6-0.6,1.2
			c0,0.3-0.3,0.9-0.3,1.5v6.2h-1.9L265.3,459.6L265.3,459.6z"/>
		<path fill="#FFFFFF" d="M296.9,469.5c0,1.9-0.6,3.4-1.5,4.3s-2.5,1.5-4.6,1.5c-0.9,0-1.9,0-2.8-0.3s-1.5-0.6-1.9-0.9
			c-0.6-0.6-0.9-1.2-1.2-1.9s-0.3-1.5-0.3-2.8v-9.9h2.2v9.9c0,1.2,0.3,2.5,1.2,3.1c0.6,0.6,1.9,1.2,3.1,1.2s2.2-0.3,3.1-1.2
			c0.6-0.6,0.9-1.9,0.9-3.1v-9.9h2.2v9.9H296.9z"/>
		<path fill="#FFFFFF" d="M300.3,463.9h1.9v1.9l0,0c0.3-0.6,0.9-1.2,1.5-1.5s1.2-0.6,2.2-0.6c0.6,0,1.2,0,1.9,0.3s0.9,0.6,1.2,0.9
			c0.3,0.3,0.6,0.9,0.6,1.2c0,0.6,0.3,0.9,0.3,1.5v7.4h-1.9v-7.7c0-0.6-0.3-1.2-0.6-1.5s-0.9-0.6-1.5-0.6s-0.9,0-1.5,0.3
			c-0.3,0.3-0.6,0.3-0.9,0.6c-0.3,0.3-0.6,0.6-0.6,1.2c0,0.3-0.3,0.9-0.3,1.5v6.2h-1.9v-11.1H300.3z"/>
		<path fill="#FFFFFF" d="M314.9,461.8H313v-2.2h1.9V461.8z M313,463.9h1.9v11.1H313V463.9z"/>
		<path fill="#FFFFFF" d="M323.2,475.1h-1.9l-4-11.1h2.2l3.1,9.3l0,0l3.1-9.3h1.9L323.2,475.1z"/>
		<path fill="#FFFFFF" d="M339,471.7c-0.3,1.2-0.9,2.2-1.5,2.8c-0.9,0.6-1.9,0.9-3.1,0.9c-0.9,0-1.5,0-2.5-0.3
			c-0.6-0.3-1.2-0.6-1.5-1.2c-0.3-0.6-0.9-1.2-0.9-1.9c-0.3-0.6-0.3-1.5-0.3-2.5c0-0.9,0-1.5,0.3-2.5c0.3-0.6,0.6-1.2,1.2-1.9
			c0.6-0.6,0.9-0.9,1.5-1.2s1.2-0.3,2.2-0.3c0.9,0,1.9,0.3,2.5,0.6c0.6,0.3,1.2,0.9,1.5,1.5s0.6,1.2,0.9,2.2c0,0.6,0.3,1.5,0.3,2.2
			h-8.4c0,0.6,0,0.9,0.3,1.5c0,0.3,0.3,0.9,0.6,1.2s0.6,0.6,1.2,0.9c0.3,0.3,0.9,0.3,1.5,0.3s1.5-0.3,1.9-0.6
			c0.6-0.3,0.9-0.9,0.9-1.5h1.2V471.7z M337.2,468.6c0-0.3,0-0.9-0.3-1.2s-0.3-0.6-0.6-0.9c-0.3-0.3-0.6-0.6-0.9-0.6
			c-0.3-0.3-0.9-0.3-1.2-0.3c-0.6,0-0.9,0-1.2,0.3s-0.6,0.3-0.9,0.6c-0.3,0.3-0.6,0.6-0.6,0.9c-0.3,0.3-0.3,0.9-0.3,1.2H337.2z"/>
		<path fill="#FFFFFF" d="M341.2,463.9h1.9v2.5l0,0c0.3-0.9,0.9-1.5,1.5-2.2c0.6-0.3,1.5-0.6,2.5-0.6v1.9c-0.6,0-1.2,0-1.9,0.3
			s-0.9,0.6-1.2,0.9c-0.3,0.3-0.6,0.9-0.6,1.5s-0.3,1.2-0.3,1.9v5h-1.9L341.2,463.9L341.2,463.9z"/>
		<path fill="#FFFFFF" d="M350.2,471.7c0,0.3,0,0.6,0.3,0.9c0.3,0.3,0.3,0.6,0.6,0.6c0.3,0.3,0.6,0.3,0.9,0.3c0.3,0,0.6,0,1.2,0
			c0.3,0,0.6,0,0.9,0c0.3,0,0.6,0,0.9-0.3c0.3,0,0.6-0.3,0.6-0.6c0.3-0.3,0.3-0.6,0.3-0.9c0-0.3,0-0.6-0.3-0.9
			c-0.3-0.3-0.6-0.3-0.9-0.6c-0.3,0-0.6-0.3-1.2-0.3c-0.3,0-0.9-0.3-1.2-0.3s-0.9-0.3-1.2-0.3s-0.9-0.3-1.2-0.6s-0.6-0.6-0.9-0.9
			c-0.3-0.3-0.3-0.9-0.3-1.2c0-0.6,0-0.9,0.3-1.5c0.3-0.3,0.6-0.6,0.9-0.9c0.3-0.3,0.9-0.3,1.2-0.6c0.6,0,0.9-0.3,1.5-0.3
			s1.2,0,1.9,0.3c0.6,0,0.9,0.3,1.5,0.6c0.3,0.3,0.6,0.6,0.9,0.9c0.3,0.3,0.3,0.9,0.3,1.5h-1.9c0-0.3,0-0.6-0.3-0.9
			c-0.3-0.3-0.3-0.3-0.6-0.6c-0.3,0-0.6-0.3-0.9-0.3c-0.3,0-0.6,0-0.9,0c-0.3,0-0.6,0-0.9,0c-0.3,0-0.6,0-0.6,0.3
			c-0.3,0-0.3,0.3-0.6,0.3c0,0.3-0.3,0.3-0.3,0.6s0,0.6,0.3,0.9c0.3,0.3,0.6,0.3,0.9,0.6c0.3,0,0.6,0.3,1.2,0.3
			c0.3,0,0.9,0.3,1.2,0.3s0.9,0.3,1.2,0.3s0.9,0.3,1.2,0.6s0.6,0.6,0.9,0.9c0.3,0.3,0.3,0.9,0.3,1.2c0,0.6,0,1.2-0.3,1.5
			s-0.6,0.9-1.2,1.2c-0.3,0.3-0.9,0.6-1.5,0.6s-1.2,0.3-1.5,0.3c-0.6,0-1.2,0-1.9-0.3c-0.6,0-0.9-0.3-1.5-0.6
			c-0.3-0.3-0.9-0.6-0.9-1.2c-0.3-0.6-0.3-0.9-0.3-1.9h1.9V471.7z"/>
		<path fill="#FFFFFF" d="M362.2,461.8h-1.9v-2.2h1.9V461.8z M360.4,463.9h1.9v11.1h-1.9V463.9z"/>
		<path fill="#FFFFFF" d="M368.1,463.9h2.2v1.5h-2.2v6.8c0,0.3,0,0.3,0,0.6c0,0,0,0.3,0.3,0.3h0.3c0.3,0,0.3,0,0.6,0h0.9v1.5h-1.5
			c-0.6,0-0.9,0-1.2,0s-0.6-0.3-0.9-0.3c-0.3-0.3-0.3-0.3-0.6-0.6c0-0.3,0-0.6,0-1.2v-7.1h-1.9v-1.5h1.9v-3.4h1.9v3.4H368.1z"/>
		<path fill="#FFFFFF" d="M377.1,476.6c-0.3,0.6-0.3,0.9-0.6,1.2s-0.3,0.6-0.6,0.9c-0.3,0.3-0.6,0.3-0.9,0.6c-0.3,0-0.6,0.3-0.9,0.3
			c-0.3,0-0.3,0-0.6,0s-0.3,0-0.6,0v-1.5c0.3,0,0.3,0,0.6,0.3c0.3,0,0.3,0,0.6,0s0.6,0,0.9-0.3c0.3-0.3,0.3-0.3,0.6-0.6l0.6-1.9
			l-4.3-11.1h2.2l3.4,9.3l0,0l3.1-9.3h1.9L377.1,476.6z"/>
		<path fill="#FFFFFF" d="M389.8,469.5c0-0.9,0-1.5,0.3-2.2s0.6-1.2,0.9-1.9c0.3-0.6,0.9-0.9,1.5-1.2s1.5-0.3,2.5-0.3s1.5,0,2.5,0.3
			c0.6,0.3,1.2,0.6,1.9,1.2c0.3,0.6,0.9,1.2,0.9,1.9c0.3,0.6,0.3,1.5,0.3,2.2c0,0.9,0,1.5-0.3,2.2c-0.3,0.6-0.6,1.2-0.9,1.9
			c-0.3,0.6-0.9,0.9-1.9,1.2c-0.6,0.3-1.5,0.3-2.5,0.3s-1.5,0-2.5-0.3c-0.6-0.3-1.2-0.6-1.5-1.2c-0.3-0.6-0.9-1.2-0.9-1.9
			C390.1,471.1,389.8,470.4,389.8,469.5z M392,469.5c0,0.6,0,1.2,0.3,1.9c0.3,0.6,0.3,0.9,0.6,1.2s0.6,0.6,1.2,0.9
			c0.3,0.3,0.9,0.3,1.2,0.3c0.6,0,0.9,0,1.2-0.3s0.9-0.3,1.2-0.9c0.3-0.3,0.6-0.9,0.6-1.2c0.3-0.6,0.3-1.2,0.3-1.9s0-1.2-0.3-1.9
			s-0.3-0.9-0.6-1.2s-0.6-0.6-1.2-0.9c-0.3-0.3-0.9-0.3-1.2-0.3c-0.6,0-0.9,0-1.2,0.3s-0.9,0.3-1.2,0.9c-0.3,0.3-0.6,0.9-0.6,1.2
			C392,468.3,392,468.9,392,469.5z"/>
		<path fill="#FFFFFF" d="M404,465.5h-1.9v-1.5h1.9v-1.5c0-0.9,0.3-1.5,0.9-2.2c0.6-0.6,1.2-0.6,2.2-0.6c0.3,0,0.3,0,0.6,0
			s0.3,0,0.6,0v1.5c-0.3,0-0.3,0-0.6,0s-0.3,0-0.6,0s-0.9,0-0.9,0.3c-0.3,0.3-0.3,0.6-0.3,0.9v1.5h2.2v1.5h-2.2v9.6H404V465.5z"/>
		<path fill="#FFFFFF" d="M419.2,463.9h2.2v1.5h-2.2v6.8c0,0.3,0,0.3,0,0.6c0,0,0,0.3,0.3,0.3h0.3c0.3,0,0.3,0,0.6,0h0.9v1.5h-1.5
			c-0.6,0-0.9,0-1.2,0s-0.6-0.3-0.9-0.3c-0.3-0.3-0.3-0.3-0.6-0.6c0-0.3,0-0.6,0-1.2v-7.1h-1.9v-1.5h1.9v-3.4h1.9v3.4H419.2z"/>
		<path fill="#FFFFFF" d="M423.8,459.6h1.9v5.9l0,0c0-0.3,0.3-0.6,0.6-0.9c0.3-0.3,0.6-0.3,0.9-0.6c0.3,0,0.6-0.3,0.9-0.3
			c0.3,0,0.6,0,0.9,0c0.6,0,1.2,0,1.9,0.3s0.9,0.6,1.2,0.9c0.3,0.3,0.6,0.9,0.6,1.2c0,0.6,0.3,0.9,0.3,1.5v7.4h-1.9v-7.7
			c0-0.6-0.3-1.2-0.6-1.5s-0.9-0.6-1.5-0.6s-0.9,0-1.5,0.3c-0.3,0.3-0.6,0.3-0.9,0.6c-0.3,0.3-0.6,0.6-0.6,1.2
			c0,0.3-0.3,0.9-0.3,1.5v6.2h-1.9V459.6z"/>
		<path fill="#FFFFFF" d="M446.1,471.7c-0.3,1.2-0.9,2.2-1.5,2.8c-0.9,0.6-1.9,0.9-3.1,0.9c-0.9,0-1.5,0-2.5-0.3
			c-0.6-0.3-1.2-0.6-1.5-1.2c-0.3-0.6-0.9-1.2-0.9-1.9c-0.3-0.6-0.3-1.5-0.3-2.5c0-0.9,0-1.5,0.3-2.5c0.3-0.6,0.6-1.2,1.2-1.9
			c0.6-0.6,0.9-0.9,1.5-1.2s1.2-0.3,2.2-0.3c0.9,0,1.9,0.3,2.5,0.6c0.6,0.3,1.2,0.9,1.5,1.5s0.6,1.2,0.9,2.2c0,0.6,0.3,1.5,0.3,2.2
			h-8.4c0,0.6,0,0.9,0.3,1.5c0,0.3,0.3,0.9,0.6,1.2s0.6,0.6,1.2,0.9c0.3,0.3,0.9,0.3,1.5,0.3s1.5-0.3,1.9-0.6
			c0.6-0.3,0.9-0.9,0.9-1.5h1.2V471.7z M444.3,468.6c0-0.3,0-0.9-0.3-1.2s-0.3-0.6-0.6-0.9c-0.3-0.3-0.6-0.6-0.9-0.6
			c-0.3,0-0.9-0.3-1.2-0.3c-0.6,0-0.9,0-1.2,0.3s-0.6,0.3-0.9,0.6c-0.3,0.3-0.6,0.6-0.6,0.9c-0.3,0.3-0.3,0.9-0.3,1.2H444.3z"/>
		<path fill="#FFFFFF" d="M459.5,459.6h2.2l6.2,15.5h-2.2l-1.5-4.6h-6.5l-1.9,4.6h-2.2L459.5,459.6z M457.9,468.6h5.3l-2.5-7.1l0,0
			L457.9,468.6z"/>
		<path fill="#FFFFFF" d="M469.4,463.9h1.9v2.5l0,0c0.3-0.9,0.9-1.5,1.5-2.2c0.6-0.3,1.5-0.6,2.5-0.6v1.9c-0.6,0-1.2,0-1.9,0.3
			s-0.9,0.6-1.2,0.9c-0.3,0.3-0.6,0.9-0.6,1.5s-0.3,1.2-0.3,1.9v5h-1.9L469.4,463.9L469.4,463.9z"/>
		<path fill="#FFFFFF" d="M479.6,463.9h2.2v1.5h-2.2v6.8c0,0.3,0,0.3,0,0.6c0,0,0,0.3,0.3,0.3h0.3c0.3,0,0.3,0,0.6,0h0.9v1.5h-1.5
			c-0.6,0-0.9,0-1.2,0s-0.6-0.3-0.9-0.3c-0.3-0.3-0.3-0.3-0.6-0.6c0-0.3,0-0.6,0-1.2v-7.1h-1.9v-1.5h1.9v-3.4h1.9v3.4H479.6z"/>
		<path fill="#FFFFFF" d="M485.5,471.7c0,0.3,0,0.6,0.3,0.9c0.3,0.3,0.3,0.6,0.6,0.6c0.3,0.3,0.6,0.3,0.9,0.3c0.3,0,0.6,0,1.2,0
			c0.3,0,0.6,0,0.9,0c0.3,0,0.6,0,0.9-0.3c0.3,0,0.6-0.3,0.6-0.6c0.3-0.3,0.3-0.6,0.3-0.9c0-0.3,0-0.6-0.3-0.9
			c-0.3-0.3-0.6-0.3-0.9-0.6c-0.3,0-0.6-0.3-1.2-0.3c-0.3,0-0.9-0.3-1.2-0.3s-0.9-0.3-1.2-0.3s-0.9-0.3-1.2-0.6s-0.6-0.6-0.9-0.9
			c-0.3-0.3-0.3-0.9-0.3-1.2c0-0.6,0-0.9,0.3-1.5c0.3-0.3,0.6-0.6,0.9-0.9c0.3-0.3,0.9-0.3,1.2-0.6c0.6,0,0.9-0.3,1.5-0.3
			s1.2,0,1.9,0.3c0.6,0,0.9,0.3,1.5,0.6c0.3,0.3,0.6,0.6,0.9,0.9c0.3,0.3,0.3,0.9,0.3,1.5h-1.9c0-0.3,0-0.6-0.3-0.9
			c-0.3-0.3-0.3-0.3-0.6-0.6c-0.3,0-0.6-0.3-0.9-0.3c-0.3,0-0.6,0-0.9,0c-0.3,0-0.6,0-0.9,0c-0.3,0-0.6,0-0.6,0.3
			c-0.3,0-0.3,0.3-0.6,0.3c0,0.3-0.3,0.3-0.3,0.6s0,0.6,0.3,0.9c0.3,0.3,0.6,0.3,0.9,0.6c0.3,0,0.6,0.3,1.2,0.3
			c0.3,0,0.9,0.3,1.2,0.3s0.9,0.3,1.2,0.3s0.9,0.3,1.2,0.6s0.6,0.6,0.9,0.9c0.3,0.3,0.3,0.9,0.3,1.2c0,0.6,0,1.2-0.3,1.5
			s-0.6,0.9-1.2,1.2c-0.3,0.3-0.9,0.6-1.5,0.6s-1.2,0.3-1.5,0.3c-0.6,0-1.2,0-1.9-0.3c-0.6,0-0.9-0.3-1.5-0.6
			c-0.3-0.3-0.9-0.6-0.9-1.2c-0.3-0.6-0.3-0.9-0.3-1.9h1.9V471.7z"/>
	</g>
</g>
</svg>
