<?xml version="1.0" encoding="utf-8"?>
<!-- Generator: Adobe Illustrator 17.1.0, SVG Export Plug-In . SVG Version: 6.00 Build 0)  -->
<!DOCTYPE svg PUBLIC "-//W3C//DTD SVG 1.0//EN" "http://www.w3.org/TR/2001/REC-SVG-20010904/DTD/svg10.dtd">
<svg version="1.0" id="Layer_1" xmlns="http://www.w3.org/2000/svg" xmlns:xlink="http://www.w3.org/1999/xlink" x="0px" y="0px"
	 width="235.3px" height="174.4px" viewBox="0 0 235.3 174.4" enable-background="new 0 0 235.3 174.4" xml:space="preserve">
<g>
	<path fill="#FFFFFF" d="M117.8,164.8c-1.9,0-4.4-0.5-5.8-1.5l-18.9-11.1c-2.9-1.5-1.5-1.9-0.5-2.4c3.9-1.5,4.4-1.5,8.7-3.9
		c0.5,0,1,0,1.5,0l14.5,8.7c0.5,0.5,1.5,0.5,1.9,0l57-32.9c0.5-0.5,1-1,1-1.5V54.1c0-0.5-0.5-1.5-1-1.5l-57-32.9
		c-0.5-0.5-1.5-0.5-1.9,0L60.3,52.7c-0.5,0.5-1,1-1,1.5v65.8c0,0.5,0.5,1.5,1,1.5l15.5,9.2c8.2,4.4,13.5-1,13.5-5.8V59.9
		c0-1,1-1.5,1.5-1.5H98c1,0,1.5,0.5,1.5,1.5v64.8c0,11.1-6.3,17.9-16.9,17.9c-3.4,0-5.8,0-13.1-3.4l-15-8.7
		c-3.9-1.9-5.8-6.3-5.8-10.2V54.1c0-4.4,2.4-8.2,5.8-10.2l57.1-32.9c3.4-1.9,8.2-1.9,12.1,0L180.6,44c3.9,1.9,5.8,6.3,5.8,10.2v65.8
		c0,4.4-2.4,8.2-5.8,10.2l-57.1,32.9C122.1,163.9,120.2,164.8,117.8,164.8z"/>
	<path fill="#FFFFFF" d="M135.7,119.4c-24.7,0-30-11.6-30-20.8c0-1,1-1.5,1.5-1.5h7.3c1,0,1.5,0.5,1.5,1.5c1,7.3,4.4,11.1,19.3,11.1
		c12.1,0,16.9-2.9,16.9-9.2c0-3.9-1.5-6.3-19.8-8.2c-15.5-1.5-25.1-4.8-25.1-17.4c0-11.6,9.7-18.4,26.1-18.4
		c18.4,0,27.1,6.3,28.5,19.8c0,0.5,0,1-0.5,1.5c-0.5,0.5-1,0.5-1,0.5h-7.3c-1,0-1.5-0.5-1.5-1.5c-1.9-7.7-6.3-10.2-17.9-10.2
		c-13.1,0-14.5,4.4-14.5,7.7c0,4.4,1.9,5.3,19.3,7.7s25.6,5.8,25.6,17.9C163.7,112.1,153.6,119.4,135.7,119.4z"/>
</g>
</svg>
