<?xml version="1.0" encoding="utf-8"?>
<!-- Generator: Adobe Illustrator 17.1.0, SVG Export Plug-In . SVG Version: 6.00 Build 0)  -->
<!DOCTYPE svg PUBLIC "-//W3C//DTD SVG 1.0//EN" "http://www.w3.org/TR/2001/REC-SVG-20010904/DTD/svg10.dtd">
<svg version="1.0" id="Capa_1" xmlns="http://www.w3.org/2000/svg" xmlns:xlink="http://www.w3.org/1999/xlink" x="0px" y="0px"
	 width="20.2px" height="25.6px" viewBox="0 0 20.2 25.6" enable-background="new 0 0 20.2 25.6" xml:space="preserve">
<path fill="#FFFFFF" d="M10.8,22.3c-0.3-0.5-0.4-0.7-0.5-0.7c0,0-0.1-0.1-0.1-0.2c-0.4-0.3-0.5-0.8-0.5-1.2c0-0.1,0-0.2,0.1-0.3H2.3
	V4.2h10.4v11.7c0,0,0,0,0,0c0.2,0.4,0.4,0.8,0.6,1.2c0.1-0.1,0.2-0.1,0.3-0.1c0.1,0,0.2-0.1,0.4-0.1V3.1c0-0.9-0.7-1.7-1.7-1.7H2.8
	c-0.9,0-1.7,0.7-1.7,1.7v19.5c0,0.9,0.7,1.7,1.7,1.7h9.6c0.4,0,0.7-0.1,0.9-0.3c-0.4-0.2-0.9-0.4-1.3-0.7
	C11.1,22.7,10.9,22.4,10.8,22.3z M11.2,2.4c0.2,0,0.4,0.2,0.4,0.4c0,0.2-0.2,0.4-0.4,0.4c-0.2,0-0.4-0.2-0.4-0.4
	C10.8,2.6,11,2.4,11.2,2.4z M5.3,2.6h4.4v0.5H5.3V2.6z M9.6,22.4h-4v-1.2h4L9.6,22.4L9.6,22.4z M3.9,6h2.9v3.1H3.9V6z M7,9.5
	c0.1,0,0.2-0.1,0.2-0.2V5.8c0-0.1-0.1-0.2-0.2-0.2H3.7c-0.1,0-0.2,0.1-0.2,0.2v3.5c0,0.1,0.1,0.2,0.2,0.2L7,9.5L7,9.5z M3.7,5.8H7
	v3.5H3.7V5.8z M11.9,11.2c0,0.3-0.2,0.5-0.5,0.5H3.8c-0.3,0-0.5-0.2-0.5-0.5c0-0.3,0.2-0.5,0.5-0.5h7.7
	C11.7,10.7,11.9,10.9,11.9,11.2z M10.5,13.8H3.7c-0.3,0-0.5-0.2-0.5-0.5c0-0.3,0.2-0.5,0.5-0.5h7.7c0.3,0,0.5,0.2,0.5,0.5
	s-0.2,0.5-0.5,0.5h-0.1C11.1,13.7,10.8,13.7,10.5,13.8C10.5,13.8,10.5,13.8,10.5,13.8z M9.1,14.9c0,0.1,0,0.2,0.1,0.4
	c0.1,0.2,0.2,0.4,0.2,0.6H3.7c-0.3,0-0.5-0.2-0.5-0.5c0-0.3,0.2-0.5,0.5-0.5L9.1,14.9L9.1,14.9z M15.7,24.1c0,0,0.1-0.4-0.5-0.5
	c0,0-1.2,0-2.6-0.8c0,0-0.9-0.3-1-0.5c-0.6-0.9-0.8-0.8-0.8-1c-0.6-0.3-0.8-1.7,0.4-1c0,0,0.8,0.6,0.8,0.6c0,0,0.6,0.5,1,0.6
	c0.4-0.2-0.9-2.2-0.9-2.4c0,0-0.7-1.2-1.9-3.6c-0.6-1.4,0.4-1.2,0.8-0.7c0.1,0,2,3.2,2.1,3.2c0,0,0.5-1.1,1.5-0.4c0,0,0.6-1,1.4-0.1
	c0,0,1.2-0.5,1.7,0.6c0,0,1.3,1.9,1.3,3.7l0.1,0.7L15.7,24.1z"/>
</svg>
